<?xml version="1.0" encoding="UTF-8"?>
<!DOCTYPE svg PUBLIC "-//W3C//DTD SVG 1.1//EN" "http://www.w3.org/Graphics/SVG/1.1/DTD/svg11.dtd">
<!-- Creator: CorelDRAW X6 -->
<svg xmlns="http://www.w3.org/2000/svg" xml:space="preserve" width="11in" height="10.0556in" version="1.1" style="shape-rendering:geometricPrecision; text-rendering:geometricPrecision; image-rendering:optimizeQuality; fill-rule:evenodd; clip-rule:evenodd"
viewBox="0 0 11000 10056"
 xmlns:xlink="http://www.w3.org/1999/xlink">
 <defs>
  <style type="text/css">
   <![CDATA[
    .fil1 {fill:#011126;fill-rule:nonzero}
    .fil4 {fill:#67EFAC;fill-rule:nonzero}
    .fil2 {fill:#69EFAE;fill-rule:nonzero}
    .fil3 {fill:#9A26AF;fill-rule:nonzero}
    .fil5 {fill:#FFD833;fill-rule:nonzero}
    .fil0 {fill:white;fill-rule:nonzero}
   ]]>
  </style>
 </defs>
 <g id="White_x0020_outlines">
  <metadata id="CorelCorpID_0Corel-Layer"/>
  <path class="fil0" d="M10497 1153l-130 -77 -412 -244 -57 -34 -66 11 -787 136 -102 18 -36 97 -535 1437 -372 -991c-21,-57 -62,-104 -116,-132l-1243 -667c-36,-19 -77,-30 -118,-30l-119 0 -339 -201c-39,-23 -83,-35 -128,-35 -13,0 -26,1 -39,3l-2079 333c-9,2 -18,3 -24,5 -6,1 -11,3 -17,5 -11,4 -23,9 -33,14l-2 1 -4 2 -4 2c-13,7 -26,16 -38,26l-1 0 -1 0c-5,4 -9,8 -13,12 -7,7 -13,13 -19,20l0 0 0 0c-5,6 -8,11 -11,15 -5,7 -9,13 -13,20l-1 2 -2 4 -2 4c-3,6 -6,12 -8,19 -3,6 -5,13 -7,20 -2,6 -4,12 -5,19 -2,9 -3,17 -5,26 0,3 -1,6 -1,9l-1 9 0 10 0 94c-14,-25 -33,-48 -55,-67 -19,-16 -39,-29 -62,-39 -7,-4 -15,-8 -22,-11l-467 -208c-32,-14 -67,-22 -102,-22 -16,0 -32,2 -47,5l-884 171 -5 1 -5 1 -3 1 -2 0 -2 0c-2,1 -4,1 -6,2 -10,3 -20,7 -29,11 -6,3 -13,6 -19,9l-5 3 -5 3 -4 2c-12,7 -23,16 -33,25l-2 2 -3 3 -3 3c-14,14 -26,29 -37,46 -3,5 -6,10 -9,15 -7,13 -13,26 -17,40 -2,5 -3,10 -5,16 -3,12 -5,24 -6,35l-1 8 0 16 0 2181 -494 85 -150 26 0 152 0 963 0 100 85 53 68 43 -134 24 0 151 0 3334 0 104 90 52 661 381c29,27 63,47 102,58l34 19 61 -8 1766 -242 231 131 58 33 66 -13 61 -12c18,55 56,104 107,135l368 224c39,24 84,37 130,37 13,0 26,-1 39,-3l2986 -468c122,-19 211,-123 211,-247l0 -322c481,-72 852,-230 1104,-469 267,-254 403,-579 403,-965 0,-193 -26,-360 -79,-496 -56,-147 -144,-272 -260,-371 -20,-17 -41,-33 -63,-49 -3,-3 -6,-7 -9,-10 -34,-37 -124,-120 -154,-145 -110,-92 -283,-183 -473,-248 -128,-44 -274,-77 -428,-111l-2 -1c-10,-2 -20,-4 -30,-7 41,-15 102,-31 191,-44 71,-10 137,-16 196,-16 49,0 93,4 131,11 98,18 187,43 265,72 29,11 59,17 89,17 37,0 73,-8 106,-24 61,-29 109,-82 130,-146l215 -633c2,-5 3,-11 5,-16 24,-70 16,-148 -23,-212l-3 -5c-15,-25 -31,-50 -72,-102l1088 -2898 53 -142zm-4414 3996l0 0c0,-3 -1,-7 -2,-11l-1 -5 -1 -5 -1 -4c-2,-9 -5,-19 -8,-28l0 0 0 0c-2,-4 -3,-8 -5,-13 -4,-10 -9,-20 -15,-29l-2 -3 -2 -4 346 -57c-24,104 -36,211 -36,323 0,201 38,374 113,513 73,136 169,249 287,336 44,32 91,63 141,90 127,89 241,152 340,188 87,54 182,98 283,130 76,24 154,47 231,66 -20,4 -41,8 -63,11 -110,16 -212,24 -302,24 -63,0 -120,-4 -170,-12 -129,-20 -236,-48 -318,-81 -30,-12 -62,-19 -95,-19 -36,0 -71,8 -104,22 -63,29 -112,83 -133,148l-45 136 -434 53 0 -1738c0,-11 -1,-23 -2,-34zm-2216 1495l0 0c-8,-84 -59,-159 -136,-198l-592 -300 928 -137c87,-13 159,-71 193,-148l0 1367 -389 64 0 -607c0,-14 -1,-28 -4,-41z"/>
  <path class="fil0" d="M4870 9044c-53,9 -97,60 -97,114l0 499c0,54 44,92 97,84l3953 -587c54,-8 97,-59 97,-113l0 -547c0,-54 -44,-91 -97,-83l-3954 632z"/>
 </g>
 <g id="Black_x0020_Lines">
  <metadata id="CorelCorpID_1Corel-Layer"/>
  <g id="_285158104">
   <path class="fil1" d="M9164 5998c-23,-20 -48,-39 -76,-58 -3,-6 -7,-12 -11,-17 -25,-27 -108,-105 -136,-128 -92,-77 -248,-158 -416,-216 -119,-41 -259,-72 -408,-105l-2 -1c-35,-8 -71,-16 -109,-24 -55,-11 -108,-23 -157,-34 -1,-11 -2,-22 -2,-35 0,-83 30,-147 91,-195 68,-54 186,-94 352,-118 150,-22 281,-23 386,-4 109,20 208,48 296,81 18,7 37,6 54,-2 17,-8 30,-23 36,-41l215 -633c1,-3 2,-7 3,-11 10,-21 8,-45 -4,-65l-4 -6c-14,-23 -30,-50 -122,-163l1124 -2994 -412 -244 -787 136 -703 1890 -542 -1443c-6,-16 -17,-29 -32,-37l-1243 -667c-10,-5 -21,-8 -33,-8l-146 0c-6,0 -13,1 -19,3l-386 -229c-14,-8 -30,-11 -46,-9l-2079 333c-2,0 -4,1 -7,2 -1,0 -3,1 -4,1 -3,1 -6,2 -9,4l-2 1c-4,2 -7,5 -11,7 -1,1 -2,2 -3,3 -2,2 -4,4 -6,7 -1,1 -2,2 -3,4 -1,2 -3,4 -4,6l-2 3c-1,1 -1,3 -2,4 -1,2 -2,4 -2,7 -1,2 -1,4 -1,5 -1,2 -1,5 -1,7 0,2 0,3 0,5l0 2 0 1233c0,26 14,49 37,61l144 76 -119 13c-23,3 -43,17 -54,38 -6,10 -9,22 -9,34l0 738 -329 55 0 -2031c0,-20 -9,-40 -24,-53 -7,-6 -16,-11 -26,-14 -4,-3 -9,-6 -14,-8l-468 -208c-13,-6 -28,-7 -41,-5l-884 171 -3 1c-1,0 -1,0 -2,1 -4,1 -7,2 -11,4 -1,0 -3,1 -4,2l-4 2c-3,2 -7,4 -9,7l-2 2c-4,4 -7,8 -10,13 -1,1 -1,2 -2,4 -2,4 -4,8 -5,12 0,1 -1,2 -1,4 -1,5 -2,9 -2,14l0 1 0 2333 -644 111 0 963 329 206 315 -61 0 115 -625 111 0 3334 686 395c12,17 31,28 52,30l5 3 1827 -250 284 161 264 -52 0 139c0,24 13,47 33,59l368 225c11,7 23,10 36,10 4,0 7,0 11,-1l2986 -468c34,-5 59,-34 59,-69l0 -481c47,-5 94,-11 142,-18 449,-65 792,-208 1018,-423 230,-219 347,-499 347,-834 0,-171 -22,-316 -67,-432 -45,-118 -116,-219 -209,-299zm-3023 -3447l0 0 -607 -318c-10,-5 -21,-8 -32,-8 -3,0 -5,0 -8,0l-252 28 0 -311 598 -90 300 699zm-237 2622l0 0c0,-1 0,-1 0,-2l-1 -4c-1,-3 -1,-5 -2,-8 0,-1 -1,-3 -2,-4 -1,-3 -3,-6 -4,-8l-2 -3c-2,-3 -5,-6 -8,-9 -1,-1 -1,-1 -2,-2 -2,-2 -5,-4 -8,-7l-2 -2c-3,-2 -5,-3 -8,-5 0,0 -1,0 -2,-1l-140 -55c-1,-6 -3,-11 -4,-17 -11,-41 -23,-83 -37,-123l986 -161c-14,26 -26,52 -37,78 -62,145 -94,304 -94,473 0,171 31,315 91,428 60,112 139,205 235,277 40,29 83,57 129,81 155,110 261,157 324,178 79,51 166,92 258,122 109,35 221,65 333,89 84,16 160,34 227,51 11,97 -54,186 -167,224 -62,21 -146,47 -254,63 -207,30 -385,34 -526,12 -143,-22 -264,-54 -359,-93 -18,-7 -38,-7 -55,1 -17,8 -31,23 -37,41l-81 244 -750 92 0 -1942c0,-3 0,-7 -1,-10zm991 -717l0 0c-23,23 -46,47 -67,71l0 -304 -701 -425 0 -161c0,-20 -9,-39 -24,-53 -6,-5 -13,-9 -20,-12l-303 -217 562 -67 0 -270 505 1175 241 106c-71,47 -135,100 -192,156zm-3206 2848l0 0 0 -618c0,-6 -1,-11 -2,-17 0,-26 -15,-49 -38,-61l-741 -375c-13,-6 -27,-9 -41,-7l-177 26 0 -222 1350 -200c34,-5 59,-35 59,-69l0 -583c0,-1 0,-3 0,-4 0,-2 0,-4 0,-6 0,-2 -1,-4 -1,-6 0,-2 -1,-3 -1,-5 -1,-4 -3,-9 -5,-12l-2 -3c-3,-4 -6,-9 -10,-13 -1,-1 -2,-2 -4,-3 -3,-2 -5,-4 -8,-6l-190 -108 520 -79 173 85 -73 11c-34,5 -59,34 -59,69l0 2284 -546 90c-34,6 -58,34 -58,69l0 206 -374 -172c-9,-4 -19,-6 -29,-6 -4,0 -7,0 -11,1l-732 115 0 -193 939 -117c35,-4 61,-34 61,-69zm-1714 -6122l0 0 0 0 0 0z"/>
  </g>
 </g>
 <g id="Color_x0020_Lines">
  <metadata id="CorelCorpID_2Corel-Layer"/>
  <g id="_285158272">
   <path class="fil2" d="M7982 5558c37,8 74,17 110,25 146,32 283,63 396,102 117,40 229,93 312,146 -125,-43 -273,-85 -441,-124 -82,-17 -158,-35 -225,-52 -65,-17 -123,-38 -173,-63 -32,-16 -58,-34 -80,-55 33,7 67,14 101,21z"/>
  </g>
  <path class="fil1" d="M9125 4371c-16,-5 -34,-10 -53,-15l13 -35c16,20 29,36 40,50z"/>
  <g id="_285158464">
   <path class="fil3" d="M9841 1104l236 140 -630 120c-2,-2 -4,-3 -6,-5l-221 -148 621 -107z"/>
  </g>
  <g id="_285158968">
   <path class="fil4" d="M8430 3179l714 -1919 245 164 -818 2198 -158 -422c8,-5 14,-12 17,-21z"/>
  </g>
  <g id="_285158944">
   <path class="fil3" d="M8532 3755c6,16 22,27 39,27 0,0 0,0 0,0 17,0 33,-11 39,-27l860 -2311 653 -124 -1242 3308 -641 105 -1201 -2945 706 -128 787 2097z"/>
  </g>
  <g id="_285158392">
   <path class="fil2" d="M7025 5887l-227 -87c-26,-34 -51,-71 -72,-110 -52,-97 -78,-223 -78,-376 0,-153 29,-298 85,-429 56,-131 137,-249 241,-350 104,-102 232,-188 380,-256 14,-7 28,-13 42,-19l336 179 5 12c-9,4 -18,8 -28,12 -154,71 -286,161 -394,267 -109,107 -194,231 -253,369 -59,139 -89,291 -89,452 0,129 19,242 55,336z"/>
  </g>
  <g id="_285159328">
   <path class="fil5" d="M5878 7687l1383 -202 -385 -235 -999 155 0 -165 1097 -135 769 471 -1866 266 0 -156c0,0 1,0 1,0z"/>
  </g>
  <g id="_285159664">
   <polygon class="fil4" points="5877,7603 5877,7490 6858,7338 6858,7460 "/>
  </g>
  <g id="_285159784">
   <polygon class="fil5" points="6767,7047 6816,6899 6956,7024 "/>
  </g>
  <g id="_285159472">
   <path class="fil4" d="M7228 7156c0,0 0,0 0,0 0,0 -1,-1 -1,-2l-280 -251c68,18 143,34 224,47 152,24 340,20 559,-12 119,-17 214,-47 275,-68 119,-41 202,-126 232,-227l322 168c1,8 1,16 1,24 0,47 -7,91 -21,131 -14,38 -39,73 -75,106 -38,34 -89,64 -153,90 -65,27 -150,47 -251,62 -205,30 -381,34 -521,12 -77,-12 -148,-27 -211,-44 -39,-11 -67,-23 -98,-37z"/>
  </g>
  <g id="_285159808">
   <path class="fil3" d="M4595 4448c-40,-31 -65,-78 -65,-132 0,-92 75,-167 167,-167 20,0 39,4 57,10 -51,15 -91,46 -121,94 -51,80 -49,149 -38,194z"/>
  </g>
  <g id="_285159304">
   <path class="fil4" d="M4704 4298c25,-40 59,-67 138,-67 2,0 5,0 7,0 7,3 16,4 23,2 27,10 53,22 79,33 -99,17 -175,102 -178,205 -6,-1 -13,-1 -19,0 -31,-13 -56,-21 -71,-26 -10,-22 -25,-77 21,-149z"/>
  </g>
  <g id="_285160120">
   <path class="fil4" d="M4988 4305c17,0 35,3 53,7 35,20 69,41 101,63 -106,6 -192,89 -202,195 -45,-29 -87,-52 -125,-70 -1,-7 -1,-14 -1,-21 0,-96 78,-174 174,-174z"/>
  </g>
  <g id="_285160288">
   <path class="fil4" d="M5155 4416c19,0 37,3 54,9 35,28 68,59 99,91 -9,-1 -19,-2 -28,-2 -98,0 -181,66 -207,157 -30,-27 -61,-51 -91,-73 0,-3 0,-5 0,-8 0,-96 78,-174 174,-174z"/>
  </g>
  <g id="_285159952">
   <path class="fil4" d="M5087 4801c28,30 53,62 77,95l-391 65 0 -112 315 -48z"/>
  </g>
  <g id="_285159976">
   <path class="fil4" d="M5109 4703c12,-84 85,-148 172,-148 30,0 58,7 83,21 36,44 70,90 100,140 -19,-5 -38,-8 -58,-8 -83,0 -155,47 -191,116 -34,-46 -70,-86 -106,-121z"/>
  </g>
  <g id="_285160336">
   <path class="fil4" d="M5405 4750c33,0 64,9 92,26 20,37 38,75 54,115 -18,-5 -36,-7 -55,-7 -78,0 -146,42 -184,104 -13,-27 -27,-53 -41,-77 -1,-3 -3,-6 -5,-9 -8,-13 -16,-25 -24,-37 24,-67 88,-115 163,-115z"/>
  </g>
  <g id="_285160168">
   <path class="fil4" d="M5495 4926c26,0 52,6 75,17 15,42 29,85 40,130 5,20 10,41 14,61 -29,-14 -62,-22 -95,-22 -58,0 -112,23 -152,62 -12,-49 -28,-94 -45,-136 25,-65 88,-111 162,-111z"/>
  </g>
  <g id="_285160552">
   <path class="fil3" d="M6225 1765l453 174 911 2164c-90,24 -176,56 -271,100 -12,6 -24,12 -36,18l-1056 -2455z"/>
  </g>
  <g id="_285160960">
   <path class="fil4" d="M5167 1841c-20,3 -35,21 -35,41l0 705 -394 56 0 -1160 1898 -292 0 428 -1469 222z"/>
  </g>
  <g id="_285160696">
   <polygon class="fil4" points="6231,2764 6231,3190 5175,3315 5175,3482 4769,3541 4769,2968 "/>
  </g>
  <g id="_285160744">
   <polygon class="fil3" points="6659,4250 6099,4333 6099,3910 "/>
  </g>
  <g id="_285160936">
   <path class="fil4" d="M6099 4609l0 -191 618 -92 0 317 -1105 180c-14,-32 -30,-65 -48,-97l500 -76c20,-3 35,-21 35,-41z"/>
  </g>
  <g id="_285161248">
   <path class="fil4" d="M5636 5189c10,54 16,106 21,154 -34,-15 -72,-24 -113,-24 -50,0 -97,13 -134,35 -4,-46 -11,-89 -19,-131 32,-44 84,-71 140,-71 39,0 76,13 106,36z"/>
  </g>
  <g id="_285162112">
   <path class="fil3" d="M5336 5697c24,49 80,106 188,114 5,0 11,1 16,1 0,0 0,0 0,0 46,0 82,-14 111,-32 -27,54 -84,92 -149,92 -92,0 -167,-75 -167,-167 0,-2 0,-5 0,-7z"/>
  </g>
  <g id="_285161560">
   <path class="fil4" d="M5530 5728c-97,-7 -120,-64 -124,-81 2,-15 3,-29 4,-43 38,22 85,35 134,35 42,0 82,-9 116,-25 -1,18 -3,31 -3,38 -8,17 -45,82 -126,76z"/>
  </g>
  <g id="_285161584">
   <path class="fil4" d="M5544 5597c-51,0 -98,-15 -131,-41 3,-54 3,-105 0,-154 33,-26 80,-41 131,-41 43,0 85,11 116,31 4,69 4,128 2,173 -32,20 -74,32 -118,32z"/>
  </g>
  <g id="_285161704">
   <path class="fil3" d="M6512 970l1152 618 -676 123 -269 -154 0 -425c0,-15 -8,-28 -20,-36l-213 -126 26 0z"/>
  </g>
  <g id="_285161632">
   <polygon class="fil3" points="5929,736 6570,1117 4703,1404 3992,1046 "/>
  </g>
  <g id="_285162016">
   <polygon class="fil5" points="3900,2232 3900,1093 4654,1472 4654,2630 "/>
  </g>
  <g id="_285162040">
   <path class="fil3" d="M4194 2481l469 248c6,3 13,5 19,5 2,0 4,0 6,0l2 0c2,0 4,1 6,1 6,0 12,-2 18,-4l465 -66c21,-3 36,-20 36,-41l0 -255 279 -31 672 352 -1459 203 -715 -389 203 -23z"/>
  </g>
  <g id="_285162472">
   <polygon class="fil5" points="3900,2549 4686,2976 4686,3553 3900,3668 "/>
  </g>
  <g id="_285162664">
   <polygon class="fil5" points="3432,3389 3816,3325 3816,3499 3432,3569 "/>
  </g>
  <g id="_285162544">
   <polygon class="fil3" points="3432,3654 3816,3584 3816,3680 3432,3736 "/>
  </g>
  <g id="_285162712">
   <path class="fil5" d="M3432 3820l2030 -296 -193 -136 313 -37c0,0 0,0 1,1l362 260 -2514 367 0 -157z"/>
  </g>
  <g id="_285162280">
   <path class="fil3" d="M3363 4057c9,8 21,11 33,10l2619 -382 0 888 -498 76c-125,-196 -321,-382 -625,-497 -3,-1 -6,-2 -9,-2 -47,-53 -115,-84 -187,-84 -138,0 -250,112 -250,250 0,138 112,250 250,250 17,0 34,-2 50,-5 71,31 170,84 265,167l-2622 398 0 -3683 958 -153 0 2736c0,12 5,24 14,32z"/>
  </g>
  <g id="_285162376">
   <polygon class="fil5" points="4689,4861 4689,4952 4548,4883 "/>
  </g>
  <g id="_285163552">
   <polygon class="fil5" points="2895,1064 3248,1221 2358,1364 2125,1213 "/>
  </g>
  <g id="_285163576">
   <polygon class="fil4" points="2057,1269 2307,1430 2307,5081 2057,4894 "/>
  </g>
  <g id="_285163312">
   <polygon class="fil4" points="1604,4654 1414,4535 1414,3775 1604,3893 "/>
  </g>
  <g id="_285163360">
   <polygon class="fil5" points="1477,3716 1974,3631 1974,3792 1681,3843 "/>
  </g>
  <g id="_285163456">
   <polygon class="fil3" points="1687,4679 1687,3926 1974,3877 1974,4623 "/>
  </g>
  <g id="_285163120">
   <polygon class="fil4" points="2023,8577 1432,8238 1432,5102 2023,5479 "/>
  </g>
  <g id="_285164032">
   <path class="fil3" d="M3863 8371l-1757 240 0 -3119 1882 -266 0 499 -1374 203c-20,3 -36,21 -36,41l0 826c0,12 5,23 14,31 9,8 21,12 32,10l954 -106 0 535 -964 120c-21,3 -36,20 -36,41l0 681c0,12 5,24 14,31 8,7 17,10 27,10 2,0 4,0 6,0l1237 -171 0 392z"/>
  </g>
  <g id="_285164176">
   <polygon class="fil3" points="4145,8496 3946,8383 3946,7628 4145,7752 "/>
  </g>
  <g id="_285164368">
   <path class="fil4" d="M4467 8470c-2,0 -4,0 -6,1l-233 46 0 -751 238 -35 0 739z"/>
  </g>
  <g id="_285163768">
   <polygon class="fil5" points="4467,7646 4196,7686 4003,7565 4467,7489 "/>
  </g>
  <g id="_285164464">
   <path class="fil3" d="M4835 5373l0 3504 -285 -174 0 -3517 285 183c0,1 0,2 0,2z"/>
  </g>
  <g id="_285164104">
   <path class="fil5" d="M4608 5125l634 -93c29,64 51,131 66,203l-416 73 -285 -183z"/>
  </g>
  <g id="_285164872">
   <polygon class="fil4" points="6258,2053 6048,2053 6312,2669 6314,2669 6314,2673 6932,4110 7193,4225 "/>
  </g>
  <g id="_285165064">
   <polygon class="fil4" points="6948,1784 6719,1653 6719,1655 6719,1866 6742,1876 7888,4599 8143,4716 "/>
  </g>
  <g id="_285164920">
   <path class="fil3" d="M9268 6337c-39,-101 -98,-186 -177,-254 -80,-69 -183,-125 -305,-169 -125,-44 -275,-87 -445,-126 -83,-17 -160,-35 -228,-53 -71,-18 -135,-42 -190,-70 -58,-29 -104,-66 -136,-109 -34,-45 -51,-104 -51,-175 0,-117 45,-212 133,-282 85,-67 217,-113 405,-141 163,-24 305,-25 422,-3 99,18 191,43 275,72l189 -555c-36,-14 -72,-26 -117,-38l-100 268 -759 124 -360 -165 -56 -134c-8,3 -16,7 -26,11 -145,67 -270,151 -371,251 -101,99 -180,214 -235,343 -55,128 -83,269 -83,419 0,149 26,272 76,367 51,95 118,174 199,234 82,61 176,109 280,142 106,34 214,63 321,86 255,50 431,104 538,165 115,66 174,164 174,290 0,57 -9,110 -26,159 -18,51 -51,98 -98,140 -45,40 -104,75 -177,105 -71,29 -162,52 -270,68 -122,18 -234,27 -336,27 -76,0 -146,-5 -210,-15 -20,-3 -40,-7 -60,-10l420 258c1,1 2,2 3,2 1,1 2,1 2,2 0,0 0,0 1,1 2,1 3,3 4,4 1,1 1,1 2,2 3,5 6,10 7,15 0,1 0,2 0,3 0,2 1,4 1,6 0,0 0,1 0,1l0 292c49,-5 101,-11 153,-19 426,-62 748,-195 958,-394 207,-197 312,-450 312,-753 0,-157 -20,-289 -59,-392z"/>
  </g>
  <g id="_285164584">
   <path class="fil4" d="M7821 8448l-2903 455 0 -3515 404 -71c8,65 11,134 9,205 -50,47 -79,113 -79,182 0,138 112,250 250,250 138,0 250,-112 250,-250 0,-24 -4,-48 -10,-71 6,-64 13,-210 -12,-389l64 -11 0 2659c0,12 5,24 14,31 9,8 21,12 33,10l1980 -283 0 798z"/>
  </g>
  <polygon class="fil3" points="2661,6750 3501,6657 2870,6337 2661,6368 "/>
  <polygon class="fil3" points="2661,7800 2661,8061 3863,7895 3863,7881 3426,7680 "/>
  <path class="fil3" d="M3771 5079c-2,1 -4,1 -6,1l-1475 208c-2,0 -4,0 -6,0 -9,0 -17,-3 -24,-8l-236 -171c-13,-10 -20,-26 -16,-42 3,-16 15,-29 31,-32l53 -13 -86 -65 -502 89 571 365 1829 -259 -132 -75z"/>
  <g id="_285166024">
   <g>
    <g>
     <path class="fil1" d="M6762 1446c-15,8 -21,27 -13,42 8,15 27,21 42,13 15,-8 21,-27 13,-42 -8,-15 -27,-21 -42,-13zm-16 -210l0 0c15,-8 21,-27 13,-42 -8,-15 -27,-21 -42,-13 -15,8 -21,27 -13,42 8,15 27,21 42,13zm122 70l0 0c-8,-15 -27,-21 -42,-13 -15,8 -21,27 -13,42 8,15 27,21 42,13 15,-8 21,-27 13,-42zm-412 830l0 0c-15,8 -21,27 -13,42 8,15 27,21 42,13 15,-8 21,-27 13,-42 -8,-15 -27,-21 -42,-13zm-69 -142l0 0c-15,8 -21,27 -13,42 8,15 27,21 42,13 15,-8 21,-27 13,-42 -8,-15 -27,-21 -42,-13zm-11 -135l0 0c-8,-15 -27,-21 -42,-13 -15,8 -21,27 -13,42 8,15 27,21 42,13 15,-8 21,-27 13,-42zm159 18l0 0c-8,-15 -27,-21 -42,-13 -15,8 -21,27 -13,42 8,15 27,21 42,13 15,-8 21,-27 13,-42zm50 130l0 0c-8,-15 -27,-21 -42,-13 -15,8 -21,27 -13,42 8,15 27,21 42,13 15,-8 21,-27 13,-42zm18 109l0 0c-15,8 -21,27 -13,42 8,15 27,21 42,13 15,-8 21,-27 13,-42 -8,-15 -27,-21 -42,-13zm-23 138l0 0c-15,8 -21,27 -13,42 8,15 27,21 42,13 15,-8 21,-27 13,-42 -8,-15 -27,-21 -42,-13zm0 148l0 0c-15,8 -20,26 -13,41 8,15 26,20 41,12 15,-8 20,-26 13,-41 -8,-15 -26,-20 -41,-12zm154 74l0 0c-15,8 -21,27 -13,42 8,15 27,21 42,13 15,-8 21,-27 13,-42 -8,-15 -27,-21 -42,-13zm20 -101l0 0c15,-8 21,-27 13,-42 -8,-15 -27,-21 -42,-13 -15,8 -21,27 -13,42 8,15 27,21 42,13zm143 62l0 0c15,-8 21,-27 13,-42 -8,-15 -27,-21 -42,-13 -15,8 -21,27 -13,42 8,15 27,21 42,13zm32 120l0 0c-8,-15 -26,-20 -41,-12 -15,8 -20,26 -12,41 8,15 26,20 41,12 15,-8 20,-26 12,-41zm-200 -388l0 0c-15,8 -21,27 -13,42 8,15 27,21 42,13 15,-8 21,-27 13,-42 -8,-15 -27,-21 -42,-13zm8 -107l0 0c15,-8 21,-27 13,-42 -8,-15 -27,-21 -42,-13 -15,8 -21,27 -13,42 8,15 27,21 42,13zm-41 -174l0 0c-8,-15 -27,-21 -42,-13 -15,8 -21,27 -13,42 8,15 27,21 42,13 15,-8 21,-27 13,-42z"/>
    </g>
   </g>
  </g>
 </g>
 <g id="details_x0020_on_x0020_fonts">
  <metadata id="CorelCorpID_3Corel-Layer"/>
  <g id="_285169072">
   <g>
    <g>
     <polygon class="fil3" points="6943,7775 6594,8640 6757,8615 7112,7751 "/>
    </g>
    <g>
     <polygon class="fil3" points="6330,7863 6004,8733 6167,8707 6499,7839 "/>
    </g>
    <g>
     <polygon class="fil3" points="6647,7817 6309,8685 6472,8659 6816,7793 "/>
    </g>
    <g>
     <polygon class="fil3" points="7512,8497 7675,8471 7821,8150 7821,7805 "/>
    </g>
    <g>
     <polygon class="fil3" points="7261,7730 6900,8592 7063,8567 7430,7706 "/>
    </g>
    <g>
     <polygon class="fil3" points="7578,7685 7206,8545 7369,8519 7747,7660 "/>
    </g>
   </g>
  </g>
  <g id="_285169552">
   <g>
    <g>
     <path class="fil5" d="M7371 4789c-101,99 -180,214 -235,343 -55,128 -83,269 -83,419 0,25 1,50 3,74l361 -878c-16,14 -31,28 -46,42z"/>
    </g>
    <g>
     <path class="fil5" d="M8942 4702l-133 22 -111 232c50,9 98,20 144,32l260 -536c-18,-6 -38,-12 -59,-17l-100 268z"/>
    </g>
    <g>
     <path class="fil5" d="M7735 5381c0,-117 45,-212 133,-282 3,-2 6,-5 10,-7l149 -338 -136 -62 -613 1418c16,15 33,29 51,43 20,15 42,30 63,43l345 -783c-1,-10 -1,-21 -1,-31z"/>
    </g>
    <g>
     <path class="fil5" d="M7802 5574l-303 678c35,16 71,30 109,42 7,2 13,4 20,6l290 -638c-47,-25 -86,-54 -116,-88z"/>
    </g>
    <g>
     <path class="fil5" d="M7767 4527c-8,3 -16,7 -26,11 -42,19 -82,40 -121,63l-522 1248c9,24 19,47 30,69 17,32 36,62 57,90l605 -1422 -25 -59z"/>
    </g>
    <g>
     <path class="fil5" d="M8235 4964l72 -159 -124 20 -39 -18 -88 198c52,-17 112,-30 179,-41z"/>
    </g>
    <g>
     <path class="fil5" d="M8306 5780l-294 617c47,10 92,20 133,31l298 -616c-33,-8 -67,-17 -101,-25 -12,-3 -24,-5 -36,-8z"/>
    </g>
    <g>
     <path class="fil5" d="M8405 4944c57,-4 111,-5 161,-3l91 -193 -175 29 -77 167z"/>
    </g>
    <g>
     <path class="fil5" d="M8113 5735c-23,-6 -44,-12 -66,-19l-288 623c45,12 89,23 134,33l291 -620c-25,-6 -48,-12 -71,-18z"/>
    </g>
   </g>
  </g>
  <g id="_285170176">
   <g>
    <g>
     <path class="fil4" d="M2697 5252c0,0 3,3 3,4 2,2 4,5 7,8 22,25 47,41 73,50l113 -16c30,-18 48,-41 49,-42 0,0 37,-46 89,-46 0,0 1,0 1,0 51,0 84,45 84,45 0,1 3,5 9,11l94 -13c-42,-8 -68,-43 -68,-44 -1,-1 -13,-19 -34,-35l-204 29c-2,3 -4,4 -4,5 0,0 -37,46 -89,46 -24,-1 -47,-10 -69,-28l-71 10c6,5 12,11 18,18z"/>
     <path class="fil4" d="M2441 5311c34,-10 57,-32 68,-41l2 -2c3,-2 7,-6 12,-12 0,0 0,0 0,0l-207 29c3,2 7,5 10,6l6 3c12,7 31,18 54,21 18,3 36,1 55,-5z"/>
     <path class="fil4" d="M2636 5310c-9,-2 -18,-2 -27,-1 -39,2 -70,23 -89,37 -2,1 -4,3 -5,4l167 -24c-15,-8 -30,-14 -45,-17z"/>
     <path class="fil4" d="M2315 5372c-6,-6 -10,-10 -14,-13l-1 -1c-6,-6 -20,-19 -39,-30 -26,-14 -53,-19 -80,-15 -13,2 -23,6 -31,9l-6 2c-27,9 -49,29 -64,42 -4,3 -7,6 -9,8 -4,2 -7,5 -10,7 -3,3 -7,7 -13,11 -1,1 -2,1 -3,2l29 19 52 -7c9,-7 19,-13 29,-16l7 -3c7,-3 15,-6 24,-7 22,-3 42,3 55,10l80 -11c-2,-2 -4,-4 -6,-6z"/>
     <path class="fil4" d="M1637 5117c16,0 32,-12 50,-26 18,-14 39,-29 55,-29 21,0 43,4 62,9 16,4 30,7 42,6 5,0 18,11 27,18 20,16 42,34 66,37 2,1 5,2 8,3 32,11 69,8 102,-7l-25 -18c-12,-8 -18,-22 -17,-37 -17,3 -33,2 -48,-3 -1,0 -3,-1 -4,-2 -3,-1 -7,-3 -11,-4 -14,-1 -31,-15 -46,-28 -18,-14 -35,-28 -52,-28 -8,0 -21,-3 -34,-6 -9,-2 -20,-4 -31,-6l-91 16c-9,6 -18,12 -25,18 -9,7 -23,17 -27,18 -12,0 -25,3 -42,6 -19,4 -42,8 -63,9 0,0 0,0 0,0 0,0 -1,0 -1,0l85 55c8,-2 16,-3 21,-3z"/>
     <path class="fil4" d="M1965 5241c-1,0 -3,-1 -4,-1 -4,-1 -7,-2 -10,-3 -18,-2 -38,-18 -54,-31 -16,-13 -28,-24 -42,-24 0,0 0,0 0,0 -3,0 -14,-4 -22,-7 -21,-8 -49,-18 -81,-18 -19,0 -37,8 -52,17l85 55c13,3 25,7 36,11 14,5 25,9 33,9 3,1 12,9 19,14 19,16 45,38 76,41 2,1 5,2 7,2 44,11 83,-5 102,-16 8,-5 15,-10 20,-14 9,-3 17,-11 27,-20 12,-11 28,-24 43,-29 3,-1 7,-3 11,-4 4,-2 8,-3 13,-5l-60 -43c-12,8 -23,17 -32,25 -5,5 -13,11 -14,12 -5,1 -9,4 -13,8 -3,2 -7,6 -13,9 -24,14 -52,18 -75,12z"/>
     <path class="fil4" d="M1948 4969c24,8 49,8 74,2l-17 -12 -57 10z"/>
     <path class="fil4" d="M3448 5142c-1,0 -1,0 -2,0 -72,1 -120,62 -122,64 0,0 -19,23 -48,37l114 -16c15,-10 34,-18 57,-18 12,0 22,2 32,6l84 -12c-12,-15 -54,-61 -115,-61z"/>
     <path class="fil4" d="M3764 5081l-212 30c20,19 54,43 99,42 72,-1 120,-62 122,-64 0,0 2,-2 4,-5l-7 -4c-2,1 -4,1 -6,1z"/>
     <path class="fil4" d="M3863 5142c-35,0 -64,15 -85,30l125 -18 -19 -11c-6,-1 -13,-2 -19,-2 -1,0 -1,0 -2,0z"/>
    </g>
   </g>
   <g>
    <g>
     <path class="fil4" d="M2661 6536c17,8 37,15 60,14 72,-1 120,-62 122,-64 0,0 37,-46 89,-47 51,0 85,45 85,45 2,3 47,65 119,65 1,0 1,0 2,0 37,0 67,-17 88,-33l-71 -36c-6,1 -11,2 -18,2 0,0 -1,0 -1,0 -51,0 -84,-45 -84,-45 -1,-1 -5,-7 -13,-15l-98 -50c-3,0 -6,0 -9,0 -72,1 -120,62 -122,64 0,0 -37,46 -89,47 0,0 -1,0 -1,0 -24,0 -44,-10 -58,-21l0 73z"/>
     <path class="fil4" d="M3049 6599c-16,-16 -54,-55 -106,-55 0,0 -1,0 -1,0 -50,1 -88,29 -106,43 -2,1 -4,3 -5,4 -6,2 -11,6 -17,12 -16,15 -46,41 -82,42 -29,1 -53,-13 -69,-25l0 73c18,10 42,19 70,19 51,-1 90,-36 108,-53 2,-2 3,-3 4,-4 4,-2 8,-5 14,-9 15,-11 46,-34 84,-35 0,0 1,0 1,0 36,0 65,28 78,42 3,3 6,6 9,8 2,2 5,6 9,9 12,11 28,24 48,32l133 -15c17,-11 30,-24 38,-31 1,-1 2,-2 3,-3 2,-2 4,-4 6,-6 4,-4 13,-13 25,-21 20,-13 41,-20 62,-18 16,1 30,6 40,11 20,9 35,26 43,34 4,4 6,7 10,9l54 -6 -205 -104c-8,4 -16,8 -24,13 -16,11 -28,22 -34,29 -3,2 -5,4 -8,8 -11,11 -33,33 -63,41 -6,2 -14,4 -22,4 -34,3 -61,-16 -78,-32 -3,-3 -5,-5 -6,-6 -4,-5 -10,-9 -15,-9 5,1 8,3 9,4 -1,-1 -3,-2 -5,-4z"/>
     <path class="fil4" d="M2909 6722l52 -6c-3,0 -7,-1 -10,-1 -15,0 -29,3 -42,7z"/>
     <path class="fil4" d="M3443 6660c1,1 2,2 3,3l1 0c-3,-2 -4,-3 -4,-3z"/>
    </g>
   </g>
   <g>
    <g>
     <path class="fil4" d="M3467 7935c-6,-6 -10,-10 -14,-13l-1 -1c-6,-6 -20,-19 -39,-30 -26,-14 -53,-19 -80,-15 -13,2 -23,6 -31,9l-6 2c-27,9 -49,29 -64,42 -4,3 -7,6 -9,8 -4,2 -7,5 -10,7 -3,3 -7,7 -13,11 -14,9 -43,24 -75,19 -1,0 -3,-1 -4,-1 -3,-1 -6,-1 -8,-2 -24,-2 -46,-22 -62,-36 -12,-11 -21,-19 -32,-19 -3,-1 -7,-3 -12,-6 -20,-11 -52,-29 -91,-29 -1,0 -1,0 -2,0 -42,1 -77,29 -98,47 -5,4 -8,7 -11,9 -7,1 -14,5 -24,10 -18,10 -46,24 -77,25 -15,0 -29,-6 -41,-14l0 72c13,5 26,9 41,9 40,-1 73,-18 94,-29 6,-3 10,-6 11,-6 10,0 19,-7 32,-18 18,-15 45,-37 74,-37 31,1 57,14 75,24 10,6 17,10 25,11 3,2 7,6 11,9 6,5 12,11 20,17l222 -31c11,-10 26,-21 41,-26l7 -3c7,-3 15,-6 24,-7 24,-3 44,4 57,11 3,2 6,4 9,6l76 -10c-5,-5 -10,-9 -13,-13z"/>
     <path class="fil4" d="M3662 7830c3,-2 7,-6 12,-12 5,-5 11,-11 17,-16 0,0 0,0 0,0l-58 -27c0,0 -1,1 -1,1 -9,8 -27,24 -52,32 -13,4 -27,5 -39,4 -17,-2 -31,-10 -41,-16l-7 -4c-10,-5 -20,-15 -29,-24 -8,-8 -14,-14 -21,-18l-3 -2c-7,-6 -20,-18 -38,-26 -26,-12 -54,-16 -80,-10 -12,3 -22,7 -29,10 -3,1 -5,2 -7,3 -22,8 -42,25 -57,38 -5,5 -13,11 -14,12 -5,1 -9,4 -13,8 -3,2 -7,6 -13,9 -24,14 -52,18 -75,12 -1,0 -3,-1 -4,-1 -4,-1 -7,-2 -10,-3 -18,-2 -38,-18 -54,-31 -14,-12 -26,-21 -38,-23l-249 39c-20,7 -44,16 -70,16 -5,0 -10,-1 -15,-3l-17 3 0 60c10,4 21,6 32,6 31,0 60,-11 81,-18 9,-3 20,-7 23,-7 13,0 25,-10 41,-22 19,-15 42,-33 65,-33 25,0 49,9 68,16 14,5 25,9 33,9 3,1 12,9 19,14 19,16 45,38 76,41 2,1 5,2 7,2 44,11 83,-5 102,-16 8,-5 15,-10 20,-14 9,-3 17,-11 27,-20 12,-11 28,-24 43,-29 3,-1 7,-3 11,-4 6,-3 14,-6 22,-8 24,-5 45,1 58,7 12,6 22,14 28,19 4,4 7,6 10,8 3,2 6,6 10,10 10,10 24,24 40,33l6 3c12,7 31,18 54,21 18,3 36,1 55,-5 34,-10 57,-32 68,-41l2 -2z"/>
     <path class="fil4" d="M3787 7873c-9,-2 -18,-2 -27,-2 -39,2 -70,23 -89,37 -7,5 -12,10 -17,15l192 -26c-18,-13 -38,-21 -58,-25z"/>
    </g>
   </g>
  </g>
  <g id="_285172744">
   <g>
    <polygon class="fil3" points="1453,8206 1508,8237 1683,7758 1628,7727 "/>
   </g>
   <g>
    <polygon class="fil3" points="1502,7208 1615,7419 1497,7496 1532,7572 1693,7463 1540,7173 "/>
   </g>
   <g>
    <polygon class="fil3" points="1988,5946 1875,5736 1993,5659 1958,5582 1797,5692 1950,5981 "/>
   </g>
   <g>
    <polygon class="fil3" points="1569,5764 1730,5654 1577,5365 1539,5399 1652,5610 1533,5687 "/>
   </g>
   <g>
    <polygon class="fil3" points="1652,6627 1490,6737 1643,7026 1681,6992 1568,6781 1687,6704 "/>
   </g>
   <g>
    <polygon class="fil3" points="1797,6766 1909,6977 1791,7054 1826,7130 1987,7021 1834,6731 "/>
   </g>
   <g>
    <polygon class="fil3" points="1705,6048 1668,6083 1781,6293 1662,6371 1697,6447 1859,6337 "/>
   </g>
   <g>
    <polygon class="fil3" points="1772,7972 1885,8183 1766,8260 1801,8336 1963,8226 1809,7937 "/>
   </g>
   <g>
    <polygon class="fil3" points="1921,7391 1760,7501 1913,7790 1951,7755 1838,7544 1956,7467 "/>
   </g>
   <g>
    <polygon class="fil3" points="2022,6451 2006,6422 2022,6411 2022,6314 1928,6378 2022,6555 "/>
   </g>
   <g>
    <polygon class="fil3" points="1558,6020 1523,5944 1431,6006 1431,6184 1515,6343 1552,6308 1439,6097 "/>
   </g>
  </g>
  <g id="_285174424">
   <path class="fil4" d="M4280 3938l-316 46c-400,243 -714,608 -894,1039l121 -18c216,-474 603,-859 1089,-1067z"/>
   <path class="fil4" d="M4914 3858l0 0 0 0c0,0 0,0 -1,0 0,0 0,0 -1,0l0 0 0 0c-727,69 -1329,518 -1628,1132l126 -19c293,-550 848,-947 1512,-1010 393,-37 769,48 1092,224l0 -117c-329,-168 -708,-247 -1101,-210z"/>
   <path class="fil4" d="M3778 4011l-208 30c-319,269 -566,618 -710,1013l118 -18c162,-412 442,-769 801,-1026z"/>
   <path class="fil4" d="M4931 4041l0 0 0 0c0,0 0,0 -1,0 0,0 0,0 -1,0l0 0 0 0c-65,6 -130,16 -193,29 56,9 108,37 146,80 1,0 1,0 2,1 18,-2 36,-4 55,-6 391,-37 765,61 1075,254l0 -121c-318,-183 -693,-273 -1084,-236z"/>
   <path class="fil4" d="M5842 3710c59,20 117,43 174,68l0 -93 -174 25z"/>
   <path class="fil4" d="M3427 4062l-30 4c-12,2 -24,-2 -33,-10 -9,-8 -14,-19 -14,-32l0 -32c-317,297 -558,673 -693,1093l115 -18c133,-386 360,-731 656,-1006z"/>
   <path class="fil4" d="M5340 3783c238,27 466,95 675,196l0 -115c-115,-53 -235,-96 -359,-128l-316 46z"/>
   <path class="fil4" d="M4018 4879l174 -26c143,-128 313,-228 503,-287 -58,-1 -111,-21 -153,-55 -202,84 -379,211 -523,368z"/>
   <path class="fil4" d="M5039 4217c63,32 120,68 173,106 274,19 531,111 750,258l54 -8 0 -81c-280,-186 -619,-289 -976,-275z"/>
   <path class="fil4" d="M4485 4448c-18,-29 -31,-62 -36,-98 -284,122 -525,322 -699,569l146 -22c155,-193 356,-348 588,-449z"/>
   <path class="fil4" d="M3349 3886l0 -137c-425,353 -739,829 -894,1367l113 -17c144,-471 417,-891 780,-1213z"/>
   <path class="fil4" d="M4452 4263c12,-57 44,-107 88,-142 -442,142 -806,445 -1031,835l134 -20c192,-298 473,-536 809,-673z"/>
   <path class="fil4" d="M5444 4547c77,20 152,47 224,79l174 -27c-157,-92 -333,-155 -518,-184 45,42 85,86 121,131z"/>
  </g>
  <g id="_285165736">
   <g>
    <g>
     <g>
      <polygon class="fil4" points="1974,3877 1899,3890 1687,4416 1687,4679 1746,4667 1974,4113 "/>
     </g>
     <g>
      <polygon class="fil4" points="1974,4456 1898,4637 1974,4623 "/>
     </g>
     <g>
      <polygon class="fil4" points="1765,3913 1687,3926 1687,4109 "/>
     </g>
    </g>
   </g>
   <g>
    <g>
     <g>
      <polygon class="fil4" points="3433,3653 3432,3654 3432,3656 "/>
     </g>
     <g>
      <polygon class="fil4" points="3772,3592 3591,3625 3546,3719 3723,3694 "/>
     </g>
    </g>
   </g>
  </g>
  <g id="_285176680">
   <g>
    <g>
     <polygon class="fil1" points="4160,1214 4102,1184 4102,2346 4160,2377 "/>
    </g>
    <g>
     <polygon class="fil1" points="3967,2274 4026,2305 4026,1145 3967,1116 "/>
    </g>
    <g>
     <polygon class="fil1" points="4295,1283 4236,1253 4236,2418 4295,2450 "/>
    </g>
    <g>
     <polygon class="fil1" points="4564,1420 4506,1391 4506,2563 4564,2594 "/>
    </g>
    <g>
     <polygon class="fil1" points="4430,1352 4371,1322 4371,2490 4430,2522 "/>
    </g>
   </g>
   <g>
    <g>
     <polygon class="fil1" points="4160,2682 4102,2649 4102,3649 4160,3640 "/>
    </g>
    <g>
     <polygon class="fil1" points="3967,3669 4026,3660 4026,2607 3967,2574 "/>
    </g>
    <g>
     <polygon class="fil1" points="4295,2756 4236,2724 4236,3629 4295,3620 "/>
    </g>
    <g>
     <polygon class="fil1" points="4564,2906 4506,2873 4506,3589 4564,3580 "/>
    </g>
    <g>
     <polygon class="fil1" points="4430,2831 4371,2799 4371,3609 4430,3600 "/>
    </g>
   </g>
  </g>
  <g id="_285176416">
   <g>
    <g>
     <path class="fil5" d="M9215 2129l-39 106c349,-167 613,-486 716,-871l-81 16c-95,321 -311,591 -595,750z"/>
    </g>
    <g>
     <path class="fil5" d="M9294 1916l-47 126c233,-149 411,-380 499,-651l-84 16c-74,203 -203,379 -368,509z"/>
    </g>
    <g>
     <path class="fil5" d="M9409 1607l-74 198c112,-107 202,-238 261,-385l-88 17c-28,60 -61,117 -99,170z"/>
    </g>
    <g>
     <path class="fil5" d="M9148 2311l-36 96c462,-171 812,-576 921,-1070l-79 15c-106,432 -407,789 -806,959z"/>
    </g>
    <g>
     <path class="fil5" d="M9805 2166c-208,224 -476,391 -778,470l-32 86c283,-65 538,-201 748,-389l63 -167z"/>
    </g>
    <g>
     <path class="fil5" d="M9085 2478l-33 90c328,-95 611,-296 814,-564l257 -684 -29 6c-110,541 -498,983 -1008,1153z"/>
    </g>
    <g>
     <path class="fil5" d="M9701 2443c-210,167 -458,287 -730,343l-31 83c261,-47 502,-150 712,-296l49 -131z"/>
    </g>
    <g>
     <path class="fil5" d="M7931 2154l-47 -126c-121,-93 -224,-208 -305,-340l-78 14c107,183 255,338 431,451z"/>
    </g>
    <g>
     <path class="fil5" d="M7843 1919l-68 -182c-19,-24 -38,-49 -55,-74l-80 15c57,89 126,171 204,241z"/>
    </g>
    <g>
     <path class="fil5" d="M8131 2688l-34 -92c-402,-143 -736,-444 -928,-833l-76 14c207,436 585,769 1038,911z"/>
    </g>
    <g>
     <path class="fil5" d="M8246 2994l-32 -85c-360,-83 -683,-271 -936,-534l70 171c253,223 561,380 898,448z"/>
    </g>
    <g>
     <path class="fil5" d="M8190 2844l-33 -87c-474,-135 -871,-470 -1095,-914l151 371c249,308 590,533 977,630z"/>
    </g>
    <g>
     <path class="fil5" d="M9617 2667c-209,133 -446,226 -701,266l-30 81c248,-34 480,-115 689,-234l43 -114z"/>
    </g>
    <g>
     <path class="fil5" d="M8070 2524l-37 -97c-311,-138 -569,-381 -729,-688l-76 14c178,354 480,630 842,772z"/>
    </g>
    <g>
     <path class="fil5" d="M8004 2349l-40 -107c-217,-124 -398,-307 -523,-528l-77 14c146,270 371,488 641,621z"/>
    </g>
   </g>
  </g>
  <g id="_285179824">
   <g>
    <g>
     <path class="fil3" d="M8733 2364l-27 73c83,55 162,117 237,185l29 -77c-76,-66 -156,-127 -239,-181z"/>
    </g>
    <g>
     <path class="fil3" d="M8473 3260c-19,-19 -39,-38 -59,-56l67 178c44,52 83,106 118,164l34 -90c-46,-70 -99,-135 -159,-196z"/>
    </g>
    <g>
     <path class="fil3" d="M8917 2691c-74,-68 -153,-131 -236,-188l-27 74c83,58 162,122 235,192l29 -78z"/>
    </g>
    <g>
     <path class="fil3" d="M8629 2642l-28 74c80,58 156,123 227,195 2,2 3,3 4,5l29 -79c-73,-72 -151,-137 -233,-195z"/>
    </g>
    <g>
     <path class="fil3" d="M8472 3065l-28 76c81,71 154,151 217,239l32 -85c-65,-84 -139,-161 -221,-230z"/>
    </g>
    <g>
     <path class="fil3" d="M8577 2783l-28 74c82,63 159,133 228,210l30 -80c-70,-75 -148,-143 -230,-204z"/>
    </g>
    <g>
     <path class="fil3" d="M8678 3059c-49,-49 -100,-95 -153,-137l-28 75c44,36 86,74 127,115 34,35 66,70 97,108l31 -82c-23,-27 -47,-53 -73,-79z"/>
    </g>
   </g>
  </g>
  <g id="_285180640">
   <g>
    <g>
     <path class="fil3" d="M6918 2294l43 103c87,36 178,65 271,85l-35 -86c-96,-24 -190,-58 -279,-101z"/>
    </g>
    <g>
     <path class="fil3" d="M6997 2483l40 94c84,27 171,48 260,63l-34 -83c-91,-17 -180,-42 -265,-74z"/>
    </g>
    <g>
     <path class="fil3" d="M7326 2712c-87,-12 -172,-30 -255,-54l38 89c82,21 165,36 251,46l-33 -81z"/>
    </g>
    <g>
     <path class="fil3" d="M6827 2077l50 119c91,50 187,90 288,120l-37 -92c-107,-37 -208,-86 -301,-147z"/>
    </g>
    <g>
     <path class="fil3" d="M7449 3013c-81,-5 -162,-14 -240,-28l35 83c78,12 157,20 237,23l-32 -78z"/>
    </g>
    <g>
     <path class="fil3" d="M6719 1809l0 57 23 10 36 85c97,75 203,135 315,179l-41 -101c-122,-57 -234,-134 -333,-230z"/>
    </g>
    <g>
     <path class="fil3" d="M6719 1653l0 2 0 57c84,92 183,170 293,231l-49 -119c-47,-32 -91,-67 -132,-106l-113 -65z"/>
    </g>
    <g>
     <path class="fil3" d="M7388 2864c-84,-8 -166,-21 -247,-39l36 85c80,16 161,27 243,33l-32 -79z"/>
    </g>
   </g>
  </g>
  <g id="_285149560">
   <g>
    <g>
     <path class="fil3" d="M6408 2400l-69 -160c-62,-58 -120,-121 -173,-187l-97 0c97,130 211,246 338,347z"/>
    </g>
    <g>
     <path class="fil3" d="M6258 2053l-5 0c3,4 7,8 10,12l-5 -12z"/>
    </g>
    <g>
     <path class="fil3" d="M6462 2526c-98,-68 -190,-146 -276,-233 -22,-22 -43,-45 -64,-68l83 192c97,89 202,168 312,236l-55 -127z"/>
    </g>
    <g>
     <path class="fil3" d="M6560 2755c-105,-58 -204,-125 -296,-199l49 113 2 0 0 4 10 24c90,63 185,120 284,170l-48 -111z"/>
    </g>
   </g>
  </g>
 </g>
 <g id="text">
  <metadata id="CorelCorpID_4Corel-Layer"/>
  <path class="fil1" d="M5046 9272l-73 -145 -84 12 0 453 84 -12 0 -255 73 145 73 -166 0 255 84 -12 0 -453 -84 12 -73 166zm293 70l0 0 114 -17 0 -84 -114 17 0 -101 133 -19 0 -84 -216 32 0 453 218 -32 0 -84 -135 20 0 -101zm271 -308l0 0 -84 12 0 453 207 -30 0 -84 -123 18 0 -369zm176 -26l0 0 0 453 200 -29 54 -55 0 -140 -32 -35 32 -44 0 -139 -54 -40 -200 29zm169 345l0 0 -86 13 0 -101 86 -13 0 101zm0 -185l0 0 -86 13 0 -101 86 -13 0 101zm189 -212l0 0 -53 55 0 358 53 40 156 -23 54 -55 0 -358 -54 -40 -156 23zm126 351l0 0 -95 14 0 -286 95 -14 0 286zm313 -46l0 0 -94 14 0 -369 -84 12 0 406 54 39 152 -22 55 -56 0 -406 -84 12 0 369zm390 -212l0 0 0 -166 -53 -40 -201 29 0 453 84 -12 0 -185 25 -4 71 174 90 -13 -72 -175 57 -62zm-84 -17l0 0 -87 13 0 -101 87 -13 0 101zm415 -245l0 0 -83 12 0 238 -92 -224 -90 13 0 453 83 -12 0 -237 91 224 90 -13 0 -1 0 -453zm136 249l0 0 114 -17 0 -84 -114 17 0 -101 133 -19 0 -84 -216 32 0 453 218 -32 0 -84 -135 20 0 -101z"/>
  <g id="_285155272">
   <polygon class="fil3" points="7837,8708 7783,8764 7783,8834 7867,8822 7867,8788 7952,8775 7952,8876 7837,8893 7783,8948 7783,9169 8036,9133 8036,9049 7866,9074 7866,8973 7981,8956 8036,8900 8036,8727 7982,8687 "/>
  </g>
  <path class="fil3" d="M8290 8642l-148 22 -54 56 0 358 53 40 149 -22 54 -55 0 -358 -54 -40zm-29 374l0 0 -89 13 0 -286 89 -13 0 286z"/>
  <g id="_285155584">
   <polygon class="fil3" points="8397,8646 8397,8730 8421,8726 8421,9076 8504,9064 8504,8611 8448,8619 "/>
  </g>
  <path class="fil3" d="M8810 8614l-54 -40 -146 21 -54 55 0 139 32 35 -32 44 0 140 54 39 146 -21 54 -55 0 -140 -33 -35 33 -45 0 -139zm-84 334l0 0 -86 13 0 -101 86 -13 0 101zm0 -185l0 0 -86 13 0 -101 86 -13 0 101z"/>
 </g>
</svg>
